<svg width="16" height="16" viewBox="0 0 16 16" fill="none" xmlns="http://www.w3.org/2000/svg">
<path d="M1.14566 12.7406C1.26821 13.8377 2.14519 14.7143 3.24178 14.8412C4.48088 14.9845 5.76128 15.1259 7.07133 15.1259C8.38138 15.1259 9.66177 14.9845 10.9009 14.8412C11.9975 14.7143 12.8744 13.8377 12.997 12.7406C13.1347 11.5075 13.2677 10.2332 13.2677 8.92951C13.2677 7.62583 13.1347 6.3516 12.997 5.11837C12.8744 4.02129 11.9975 3.14473 10.9009 3.01789C9.66177 2.87455 8.38138 2.73315 7.07133 2.73315C5.76128 2.73315 4.48088 2.87455 3.24178 3.01789C2.14519 3.14473 1.26821 4.02129 1.14566 5.11837C1.0079 6.3516 0.874969 7.62583 0.874969 8.92951C0.874969 10.2332 1.0079 11.5075 1.14566 12.7406Z" fill="white"/>
<path d="M6.1599 2.75439C5.16642 2.79914 4.19196 2.90791 3.24179 3.01782C2.14519 3.14467 1.26821 4.02123 1.14566 5.1183C1.0079 6.35154 0.874969 7.62577 0.874969 8.92945C0.874969 10.2331 1.0079 11.5074 1.14566 12.7406C1.26821 13.8376 2.14519 14.7142 3.24178 14.8411C4.48089 14.9844 5.76129 15.1259 7.07133 15.1259C8.38138 15.1259 9.66177 14.9844 10.9009 14.8411C11.9975 14.7142 12.8744 13.8378 12.997 12.7406C13.0961 11.8535 13.1927 10.9452 13.2391 10.0199" stroke="#020202" stroke-width="1.5" stroke-linecap="round"/>
<path d="M11.5525 1.48867L7.34118 6.26714L6.76425 8.98064C6.67141 9.41726 7.12653 9.83039 7.55275 9.69641L10.2531 8.84748L14.603 4.27044C15.3254 3.51024 15.1993 2.23877 14.3248 1.46527C13.4709 0.70989 12.2296 0.720365 11.5525 1.48867Z" fill="#8466FF" stroke="#020202" stroke-width="1.5" stroke-linecap="round" stroke-linejoin="round"/>
</svg>
