<svg width="21" height="21" viewBox="0 0 21 21" fill="none" xmlns="http://www.w3.org/2000/svg">
<g clip-path="url(#clip0_1_13703)">
<path d="M9.24675 12.1689L1.89389 19.5218" stroke="#020202" stroke-width="3.17691" stroke-linecap="round" stroke-linejoin="round"/>
<path d="M15.8384 3.32873C17.3883 2.66005 18.955 4.15592 18.2785 5.70235C17.898 6.57219 17.4355 7.42739 16.8003 8.45799C17.6848 9.32479 18.374 10.0457 19.0127 10.7906C20.1167 12.078 19.1441 14.0145 17.4607 13.8092C16.7185 13.7186 15.9558 13.5793 15.0691 13.3777C14.7449 13.304 14.4106 13.4588 14.2587 13.7545C13.6997 14.8433 13.2004 15.7191 12.649 16.568C11.7383 17.9698 9.62642 17.6311 9.31138 15.9894C9.11305 14.9559 9.01705 13.8903 8.98195 12.5273C7.65525 12.4724 6.60917 12.3658 5.58935 12.1704C3.93544 11.8534 3.56121 9.72413 4.97449 8.80842C5.79592 8.27618 6.66109 7.78849 7.74311 7.24845C8.04445 7.09805 8.20342 6.75946 8.12787 6.43126C7.91602 5.51122 7.77125 4.72293 7.68017 3.94826C7.48461 2.28503 9.38755 1.3167 10.6597 2.40579C11.4219 3.05829 12.158 3.7738 13.0513 4.70906C14.1028 4.13538 14.9683 3.70416 15.8384 3.32873Z" fill="#8466FF" stroke="#020202" stroke-width="3.17691" stroke-linejoin="round"/>
</g>
<defs>
<clipPath id="clip0_1_13703">
<rect width="20" height="20" fill="white" transform="translate(0.648926 0.761963)"/>
</clipPath>
</defs>
</svg>
