<svg width="16" height="16" viewBox="0 0 16 16" fill="none" xmlns="http://www.w3.org/2000/svg">
<g clip-path="url(#clip0_1_13716)">
<path d="M3.75851 10.4436C5.10808 10.4436 6.20213 9.34957 6.20213 8.00001C6.20213 6.65044 5.10808 5.5564 3.75851 5.5564C2.40895 5.5564 1.3149 6.65044 1.3149 8.00001C1.3149 9.34957 2.40895 10.4436 3.75851 10.4436Z" fill="white" stroke="#020202" stroke-width="1.5" stroke-linecap="round" stroke-linejoin="round"/>
<path d="M12.2415 5.7444C13.5911 5.7444 14.685 4.65035 14.685 3.30079C14.685 1.95122 13.5911 0.857178 12.2415 0.857178C10.8919 0.857178 9.79785 1.95122 9.79785 3.30079C9.79785 4.65035 10.8919 5.7444 12.2415 5.7444Z" fill="white" stroke="#020202" stroke-width="1.5" stroke-linecap="round" stroke-linejoin="round"/>
<path d="M12.2415 15.1428C13.5911 15.1428 14.685 14.0488 14.685 12.6992C14.685 11.3497 13.5911 10.2556 12.2415 10.2556C10.8919 10.2556 9.79785 11.3497 9.79785 12.6992C9.79785 14.0488 10.8919 15.1428 12.2415 15.1428Z" fill="white" stroke="#020202" stroke-width="1.5" stroke-linecap="round" stroke-linejoin="round"/>
<path d="M4.89168 5.86092C7.12307 4.60238 7.25849 4.59179 9.79788 3.87549" stroke="#020202" stroke-width="1.5" stroke-linecap="round" stroke-linejoin="round"/>
<path d="M4.89168 10.1389C7.12307 11.3975 7.25849 11.408 9.79788 12.1244" stroke="#020202" stroke-width="1.5" stroke-linecap="round" stroke-linejoin="round"/>
</g>
<defs>
<clipPath id="clip0_1_13716">
<rect width="16" height="16" fill="white"/>
</clipPath>
</defs>
</svg>
