<svg width="18" height="19" viewBox="0 0 18 19" fill="none" xmlns="http://www.w3.org/2000/svg">
<path d="M16.0925 14.623C16.3007 14.1239 16.2009 13.5381 15.8416 13.1511L11.6779 8.66676L14.0582 6.1032C14.2079 5.93984 14.3142 5.73612 14.3659 5.51338C14.4177 5.29063 14.4128 5.05702 14.352 4.83696C14.2912 4.61689 14.1766 4.41847 14.0203 4.26241C13.8639 4.10635 13.6714 3.99839 13.4632 3.94982C9.34344 2.19366 6.9315 1.55573 2.44236 1.01455C2.01703 0.963281 1.60599 1.04094 1.31639 1.35283C1.02678 1.66474 0.988918 2.14379 1.00229 2.5655C1.16078 7.56639 1.76849 10.1637 3.72772 14.4348C3.77918 14.655 3.88406 14.8566 4.03164 15.0189C4.17921 15.1812 4.36417 15.2983 4.56759 15.3583C4.77102 15.4183 4.98558 15.419 5.18932 15.3603C5.39307 15.3017 5.57869 15.1857 5.72716 15.0243L8.10746 12.4608L12.3732 17.0549C12.6748 17.3798 13.1244 17.4862 13.5248 17.3273C14.6279 16.8896 15.5212 15.9922 16.0031 14.8372L16.0925 14.623Z" fill="white" stroke="#020202" stroke-width="2" stroke-linecap="round" stroke-linejoin="round"/>
</svg>
